<?xml version="1.0" encoding="utf-8"?>
<svg version="1.1" xmlns:xlink="http://www.w3.org/1999/xlink" width="50px" height="66px" xmlns="http://www.w3.org/2000/svg">
  <defs>
    <mask fill="white" id="clip5">
      <path d="M 50 33  C 50 33.70967741935487  49.6943371943372 34.32382133995035  49.083011583011604 34.842431761786585  L 13.272200772200726 65.22208436724569  C 12.660875160875129 65.74069478908191  11.93693693693696 66  11.10038610038604 66  C 10.263835263835297 66  9.539897039897127 65.74069478908191  8.928571428571352 65.22208436724569  L 0.9169884169883957 58.425558312655106  C 0.3056628056627986 57.90694789081887  0 57.29280397022332  0 56.58312655086845  C 0 55.87344913151366  0.3056628056627986 55.25930521091811  0.9169884169883957 54.74069478908187  L 26.54440154440163 33  L 19.541770505586697 27.05940570831265  L 0.9169884169883957 11.25930521091813  C 0.3056628056627986 10.740694789081894  0 10.126550868486342  0 9.416873449131511  C 0 8.70719602977668  0.3056628056627986 8.093052109181128  0.9169884169883957 7.5744416873449305  L 8.928571428571352 0.7779156327543536  C 9.539897039897127 0.25930521091811787  10.263835263835297 0  11.10038610038604 0  C 11.93693693693696 0  12.660875160875129 0.25930521091811787  13.272200772200726 0.7779156327543536  L 49.083011583011604 31.15756823821342  C 49.6943371943372 31.676178660049654  50 32.29032258064513  50 33  Z " fill-rule="evenodd" />
    </mask>
  </defs>
  <g transform="matrix(1 0 0 1 -923 -296 )">
    <path d="M 50 33  C 50 33.70967741935487  49.6943371943372 34.32382133995035  49.083011583011604 34.842431761786585  L 13.272200772200726 65.22208436724569  C 12.660875160875129 65.74069478908191  11.93693693693696 66  11.10038610038604 66  C 10.263835263835297 66  9.539897039897127 65.74069478908191  8.928571428571352 65.22208436724569  L 0.9169884169883957 58.425558312655106  C 0.3056628056627986 57.90694789081887  0 57.29280397022332  0 56.58312655086845  C 0 55.87344913151366  0.3056628056627986 55.25930521091811  0.9169884169883957 54.74069478908187  L 26.54440154440163 33  L 19.541770505586697 27.05940570831265  L 0.9169884169883957 11.25930521091813  C 0.3056628056627986 10.740694789081894  0 10.126550868486342  0 9.416873449131511  C 0 8.70719602977668  0.3056628056627986 8.093052109181128  0.9169884169883957 7.5744416873449305  L 8.928571428571352 0.7779156327543536  C 9.539897039897127 0.25930521091811787  10.263835263835297 0  11.10038610038604 0  C 11.93693693693696 0  12.660875160875129 0.25930521091811787  13.272200772200726 0.7779156327543536  L 49.083011583011604 31.15756823821342  C 49.6943371943372 31.676178660049654  50 32.29032258064513  50 33  Z " fill-rule="nonzero" fill="#ffffff" stroke="none" transform="matrix(1 0 0 1 923 296 )" />
    <path d="M 50 33  C 50 33.70967741935487  49.6943371943372 34.32382133995035  49.083011583011604 34.842431761786585  L 13.272200772200726 65.22208436724569  C 12.660875160875129 65.74069478908191  11.93693693693696 66  11.10038610038604 66  C 10.263835263835297 66  9.539897039897127 65.74069478908191  8.928571428571352 65.22208436724569  L 0.9169884169883957 58.425558312655106  C 0.3056628056627986 57.90694789081887  0 57.29280397022332  0 56.58312655086845  C 0 55.87344913151366  0.3056628056627986 55.25930521091811  0.9169884169883957 54.74069478908187  L 26.54440154440163 33  L 19.541770505586697 27.05940570831265  L 0.9169884169883957 11.25930521091813  C 0.3056628056627986 10.740694789081894  0 10.126550868486342  0 9.416873449131511  C 0 8.70719602977668  0.3056628056627986 8.093052109181128  0.9169884169883957 7.5744416873449305  L 8.928571428571352 0.7779156327543536  C 9.539897039897127 0.25930521091811787  10.263835263835297 0  11.10038610038604 0  C 11.93693693693696 0  12.660875160875129 0.25930521091811787  13.272200772200726 0.7779156327543536  L 49.083011583011604 31.15756823821342  C 49.6943371943372 31.676178660049654  50 32.29032258064513  50 33  Z " stroke-width="2" stroke="#555555" fill="none" transform="matrix(1 0 0 1 923 296 )" mask="url(#clip5)" />
  </g>
</svg>