<?xml version="1.0" encoding="utf-8"?>
<svg version="1.1" xmlns:xlink="http://www.w3.org/1999/xlink" width="42px" height="50px" xmlns="http://www.w3.org/2000/svg">
  <g transform="matrix(1 0 0 1 -855 -193 )">
    <path d="M 39.04342105263158 13.504464285714285  C 40.498684210526314 14.601934523809524  41.40131578947369 16.10863095238095  41.751315789473686 18.02455357142857  C 42.0828947368421 19.58705357142857  42.046052631578945 21.484375  41.64078947368421 23.716517857142854  C 40.03815789473684 31.97544642857143  34.83421052631579 36.104910714285715  26.02894736842105 36.104910714285715  L 24.813157894736843 36.104910714285715  C 24.35263157894737 36.104910714285715  23.94736842105263 36.258370535714285  23.597368421052632 36.56529017857143  C 23.247368421052634 36.87220982142857  23.026315789473692 37.26748511904762  22.934210526315788 37.75111607142857  L 22.823684210526313 38.28125  L 21.303947368421056 47.935267857142854  L 21.248684210526314 48.353794642857146  C 21.156578947368423 48.837425595238095  20.93092105263158 49.232700892857146  20.57171052631579 49.539620535714285  C 20.212500000000002 49.84654017857143  19.80263157894737 50  19.342105263157894 50  L 12.406578947368422 50  C 12.019736842105262 50  11.71578947368421 49.86049107142857  11.494736842105263 49.581473214285715  C 11.273684210526316 49.302455357142854  11.190789473684212 48.96763392857143  11.246052631578948 48.57700892857143  C 11.411842105263156 47.53534226190476  11.65592105263158 45.97284226190476  11.97828947368421 43.88950892857143  C 12.300657894736844 41.806175595238095  12.544736842105264 40.243675595238095  12.710526315789474 39.20200892857143  C 12.876315789473686 38.160342261904766  13.125000000000002 36.60249255952381  13.456578947368422 34.52845982142857  C 13.788157894736845 32.45442708333333  14.036842105263156 30.89657738095238  14.202631578947368 29.854910714285715  C 14.294736842105264 29.166666666666664  14.690789473684212 28.82254464285714  15.39078947368421 28.82254464285714  L 19.010526315789473 28.82254464285714  C 21.460526315789476 28.859747023809522  23.63421052631579 28.664434523809522  25.53157894736842 28.23660714285714  C 28.75526315789474 27.511160714285715  31.398684210526323 26.171875  33.46184210526316 24.21875  C 35.34078947368421 22.4516369047619  36.76842105263158 20.16369047619047  37.74473684210526 17.354910714285715  C 38.18684210526316 16.05282738095238  38.50921052631579 14.815848214285715  38.71184210526316 13.643973214285715  C 38.73026315789474 13.53236607142857  38.75328947368421 13.462611607142854  38.78092105263158 13.43470982142857  C 38.80855263157895 13.406808035714285  38.84078947368421 13.397507440476186  38.87763157894737 13.406808035714285  C 38.914473684210535 13.416108630952378  38.96973684210526 13.448660714285715  39.04342105263158 13.504464285714285  Z M 35.4375 4.6875  C 36.478289473684214 6.212797619047617  36.998684210526314 8.035714285714285  36.998684210526314 10.15625  C 36.998684210526314 12.146577380952378  36.575 14.341517857142854  35.72763157894737 16.74107142857143  C 34.25394736842105 21.075148809523807  31.472368421052632 24.004836309523807  27.382894736842104 25.53013392857143  C 25.301315789473687 26.274181547619047  22.980263157894736 26.664806547619047  20.419736842105262 26.70200892857143  C 20.419736842105262 26.720610119047617  19.59078947368421 26.729910714285715  17.932894736842105 26.729910714285715  L 15.446052631578947 26.70200892857143  C 13.603947368421053 26.70200892857143  12.517105263157895 27.59486607142857  12.185526315789474 29.38058035714286  C 12.148684210526318 29.52938988095238  11.365789473684211 34.45870535714286  9.836842105263159 44.168526785714285  C 9.81842105263158 44.35453869047619  9.707894736842107 44.447544642857146  9.505263157894737 44.447544642857146  L 1.3539473684210528 44.447544642857146  C 0.9486842105263158 44.447544642857146  0.6125 44.29408482142857  0.34539473684210525 43.98716517857143  C 0.07828947368421049 43.680245535714285  -0.02763157894736842 43.32217261904762  0.02763157894736842 42.91294642857143  L 6.438157894736842 1.8694196428571452  C 6.530263157894737 1.3299851190476164  6.783552631578948 0.883556547619041  7.198026315789473 0.5301339285714302  C 7.6125 0.17671130952381375  8.086842105263159 0  8.621052631578948 0  L 25.144736842105264 0  C 25.77105263157895 0  26.669078947368423 0.12090773809524391  27.83881578947368 0.3627232142857151  C 29.008552631578954 0.6045386904761862  30.035526315789475 0.9021577380952384  30.919736842105262 1.2555803571428548  C 32.890789473684215 2.018229166666663  34.39671052631579 3.162202380952378  35.4375 4.6875  Z " fill-rule="nonzero" fill="#316ae0" stroke="none" transform="matrix(1 0 0 1 855 193 )" />
  </g>
</svg>