<?xml version="1.0" encoding="utf-8"?>
<svg version="1.1" xmlns:xlink="http://www.w3.org/1999/xlink" width="71px" height="50px" xmlns="http://www.w3.org/2000/svg">
  <g transform="matrix(1 0 0 1 -841 -282 )">
    <path d="M 29.01323784722222 15.559895833333332  C 29.989076967592595 12.131076388888884  31.81235532407408 9.25564236111111  34.483072916666664 6.93359375  C 31.853443287037038 5.088975694444442  28.96701388888889 4.166666666666669  25.82378472222222 4.166666666666669  C 23.70775462962963 4.166666666666669  21.679036458333336 4.606119791666669  19.737630208333336 5.485026041666669  C 17.796223958333336 6.363932291666669  16.127025462962965 7.541232638888884  14.730034722222223 9.016927083333332  C 13.333043981481483 10.492621527777773  12.21853298611111 12.250434027777773  11.38650173611111 14.290364583333332  C 10.55447048611111 16.330295138888886  10.13845486111111 18.467881944444443  10.13845486111111 20.703125  C 10.13845486111111 22.960069444444443  10.55447048611111 25.108506944444443  11.38650173611111 27.1484375  C 12.21853298611111 29.188368055555557  13.333043981481483 30.946180555555546  14.730034722222223 32.421875  C 16.127025462962965 33.89756944444444  17.791087962962965 35.074869791666664  19.72222222222222 35.953776041666664  C 21.65335648148148 36.832682291666664  23.687210648148152 37.272135416666664  25.82378472222222 37.272135416666664  C 28.96701388888889 37.272135416666664  31.853443287037038 36.349826388888886  34.483072916666664 34.505208333333336  C 31.791811342592595 32.18315972222222  29.96339699074074 29.30230034722222  28.99782986111111 25.862630208333336  C 28.03226273148148 22.422960069444443  28.037398726851855 18.988715277777775  29.01323784722222 15.559895833333332  Z M 40.80034722222222 15.836588541666668  C 39.855324074074076 12.570529513888884  38.08854166666667 9.86328125  35.5 7.71484375  C 32.911458333333336 9.86328125  31.144675925925927 12.570529513888884  30.19965277777778 15.836588541666668  C 29.25462962962963 19.102647569444443  29.249493634259263 22.363281249999993  30.184244791666664 25.618489583333336  C 31.118995949074076 28.873697916666664  32.890914351851855 31.575520833333336  35.5 33.723958333333336  C 38.10908564814815 31.575520833333336  39.88100405092593 28.873697916666664  40.81575520833333 25.618489583333336  C 41.75050636574075 22.363281249999993  41.745370370370374 19.102647569444443  40.80034722222222 15.836588541666668  Z M 45.17621527777778 4.166666666666669  C 42.03298611111111 4.166666666666669  39.14655671296296 5.088975694444442  36.51692708333333 6.93359375  C 39.18764467592593 9.25564236111111  41.01092303240741 12.13650173611111  41.98676215277778 15.576171875  C 42.96260127314815 19.015842013888886  42.967737268518526 22.455512152777775  42.00217013888889 25.895182291666664  C 41.03660300925926 29.334852430555557  39.20818865740741 32.20486111111111  36.51692708333333 34.505208333333336  C 39.14655671296296 36.349826388888886  42.03298611111111 37.272135416666664  45.17621527777778 37.272135416666664  C 47.312789351851855 37.272135416666664  49.346643518518526 36.832682291666664  51.27777777777778 35.953776041666664  C 53.208912037037045 35.074869791666664  54.872974537037045 33.89756944444444  56.26996527777778 32.421875  C 57.666956018518526 30.946180555555546  58.78146701388889 29.188368055555557  59.61349826388889 27.1484375  C 60.44552951388889 25.108506944444443  60.86154513888889 22.960069444444443  60.86154513888889 20.703125  C 60.86154513888889 18.467881944444443  60.44552951388889 16.330295138888886  59.61349826388889 14.290364583333332  C 58.78146701388889 12.250434027777773  57.666956018518526 10.492621527777773  56.26996527777778 9.016927083333332  C 54.872974537037045 7.541232638888884  53.20377604166668 6.363932291666669  51.26236979166667 5.485026041666669  C 49.32096354166668 4.606119791666669  47.29224537037038 4.166666666666669  45.17621527777778 4.166666666666669  Z M 59.3515625 30.989583333333336  L 59.3515625 30.436197916666664  L 59.56727430555556 30.436197916666664  L 59.56727430555556 30.338541666666664  L 59.04340277777778 30.338541666666664  L 59.04340277777778 30.436197916666664  L 59.25911458333333 30.436197916666664  L 59.25911458333333 30.989583333333336  L 59.3515625 30.989583333333336  Z M 60.24522569444444 30.501302083333336  L 60.24522569444444 30.989583333333336  L 60.36848958333333 30.989583333333336  L 60.36848958333333 30.338541666666664  L 60.21440972222222 30.338541666666664  L 60.02951388888889 30.76171875  L 59.84461805555556 30.338541666666664  L 59.69053819444444 30.338541666666664  L 59.69053819444444 30.989583333333336  L 59.78298611111111 30.989583333333336  L 59.78298611111111 30.501302083333336  L 59.96788194444444 30.924479166666664  L 60.09114583333333 30.924479166666664  L 60.24522569444444 30.501302083333336  Z M 59.99869791666667 45.27994791666667  L 59.99869791666667 45.3125  L 59.99869791666667 45.37760416666667  L 59.93706597222222 45.37760416666667  L 59.84461805555556 45.37760416666667  L 59.84461805555556 45.27994791666667  L 59.93706597222222 45.27994791666667  L 59.99869791666667 45.27994791666667  Z M 59.87543402777778 45.44270833333333  L 59.99869791666667 45.60546875  L 60.09114583333333 45.60546875  L 59.96788194444444 45.44270833333333  L 60.02951388888889 45.44270833333333  L 60.06032986111111 45.41015625  C 60.0808738425926 45.38845486111111  60.091145833333336 45.35590277777777  60.09114583333333 45.3125  C 60.091145833333336 45.26909722222223  60.0808738425926 45.23654513888889  60.06032986111111 45.21484375  L 60.02951388888889 45.18229166666667  L 59.93706597222222 45.18229166666667  L 59.75217013888889 45.18229166666667  L 59.75217013888889 45.60546875  L 59.84461805555556 45.60546875  L 59.84461805555556 45.44270833333333  L 59.87543402777778 45.44270833333333  Z M 21.447916666666664 44.40104166666667  C 21.221932870370374 44.140625  21.10894097222222 43.80425347222223  21.10894097222222 43.39192708333333  C 21.10894097222222 42.97960069444444  21.221932870370374 42.64322916666667  21.447916666666664 42.3828125  C 21.673900462962965 42.12239583333333  21.982060185185187 41.9921875  22.372395833333336 41.9921875  C 22.7421875 41.9921875  23.04007523148148 42.12782118055556  23.26605902777778 42.39908854166667  C 23.492042824074076 42.67035590277777  23.60503472222222 43.00130208333333  23.60503472222222 43.39192708333333  C 23.60503472222222 43.80425347222223  23.492042824074076 44.140625  23.26605902777778 44.40104166666667  C 23.04007523148148 44.66145833333333  22.7421875 44.79166666666667  22.372395833333336 44.79166666666667  C 21.982060185185187 44.79166666666667  21.673900462962965 44.66145833333333  21.447916666666664 44.40104166666667  Z M 34.60633680555556 43.00130208333333  C 34.70905671296297 42.30685763888889  35.068576388888886 41.95963541666667  35.68489583333333 41.95963541666667  C 36.30121527777778 41.95963541666667  36.6607349537037 42.30685763888889  36.76345486111111 43.00130208333333  L 34.60633680555556 43.00130208333333  Z M 46.99435763888889 44.40104166666667  C 46.768373842592595 44.140625  46.65538194444444 43.80425347222223  46.65538194444444 43.39192708333333  C 46.65538194444444 42.97960069444444  46.768373842592595 42.64322916666667  46.99435763888889 42.3828125  C 47.220341435185176 42.12239583333333  47.51822916666667 41.9921875  47.88802083333333 41.9921875  C 48.25781250000001 41.9921875  48.560836226851855 42.12782118055556  48.79709201388889 42.39908854166667  C 49.03334780092593 42.67035590277777  49.15147569444444 43.00130208333333  49.15147569444444 43.39192708333333  C 49.15147569444444 43.80425347222223  49.038483796296305 44.140625  48.8125 44.40104166666667  C 48.5865162037037 44.66145833333333  48.27835648148148 44.79166666666667  47.88802083333333 44.79166666666667  C 47.51822916666667 44.79166666666667  47.220341435185176 44.66145833333333  46.99435763888889 44.40104166666667  Z M 55.39171006944444 44.384765625  C 55.15545428240741 44.11349826388889  55.03732638888889 43.78255208333333  55.03732638888889 43.39192708333333  C 55.03732638888889 43.00130208333333  55.15545428240741 42.67035590277777  55.39171006944444 42.39908854166667  C 55.62796585648149 42.12782118055556  55.930989583333336 41.9921875  56.30078125 41.9921875  C 56.67057291666668 41.9921875  56.973596643518526 42.12782118055556  57.20985243055556 42.39908854166667  C 57.446108217592595 42.67035590277777  57.56423611111111 43.00130208333333  57.56423611111111 43.39192708333333  C 57.56423611111111 43.80425347222223  57.446108217592595 44.140625  57.20985243055556 44.40104166666667  C 56.973596643518526 44.66145833333333  56.67057291666668 44.79166666666667  56.30078125 44.79166666666667  C 55.930989583333336 44.79166666666667  55.62796585648149 44.65603298611111  55.39171006944444 44.384765625  Z M 60.02951388888889 45.703125  C 60.00896990740741 45.72482638888889  59.96788194444446 45.73567708333333  59.90625 45.73567708333333  C 59.86516203703704 45.73567708333333  59.824074074074076 45.72482638888889  59.78298611111111 45.703125  C 59.76244212962963 45.703125  59.73162615740741 45.68142361111111  59.69053819444444 45.63802083333333  C 59.64945023148149 45.59461805555556  59.62890625000001 45.56206597222223  59.62890625 45.54036458333333  C 59.608362268518526 45.49696180555556  59.59809027777778 45.45355902777777  59.59809027777778 45.41015625  C 59.59809027777778 45.34505208333333  59.608362268518526 45.30164930555556  59.62890625 45.27994791666667  C 59.62890625000001 45.23654513888889  59.64945023148149 45.19314236111111  59.69053819444444 45.14973958333333  L 59.72135416666667 45.1171875  C 59.76244212962963 45.1171875  59.78298611111111 45.10633680555556  59.78298611111111 45.08463541666667  C 59.824074074074076 45.06293402777777  59.86516203703704 45.05208333333333  59.90625 45.05208333333333  C 59.96788194444446 45.05208333333333  60.00896990740741 45.06293402777777  60.02951388888889 45.08463541666667  L 60.15277777777778 45.14973958333333  L 60.21440972222222 45.27994791666667  L 60.21440972222222 45.3125  C 60.2349537037037 45.35590277777777  60.24522569444444 45.38845486111111  60.24522569444444 45.41015625  L 60.21440972222222 45.44270833333333  L 60.21440972222222 45.54036458333333  C 60.21440972222222 45.54036458333333  60.20413773148148 45.55121527777777  60.18359375 45.57291666666667  L 60.15277777777778 45.63802083333333  C 60.111689814814824 45.68142361111111  60.070601851851855 45.703125  60.02951388888889 45.703125  Z M 18.45876736111111 43.1640625  L 18.45876736111111 45.60546875  L 19.38324652777778 45.60546875  L 19.38324652777778 42.83854166666667  C 19.38324652777778 42.31770833333333  19.234302662037038 41.89995659722223  18.936414930555554 41.58528645833333  C 18.638527199074076 41.27061631944444  18.232783564814817 41.10243055555556  17.71918402777778 41.08072916666667  C 17.061776620370374 41.08072916666667  16.578993055555557 41.34114583333333  16.270833333333332 41.86197916666667  C 15.983217592592595 41.34114583333333  15.52097800925926 41.08072916666667  14.884114583333332 41.08072916666667  C 14.391059027777779 41.08072916666667  13.990451388888891 41.29774305555556  13.682291666666668 41.73177083333333  L 13.682291666666668 41.2109375  L 12.7578125 41.2109375  L 12.7578125 45.60546875  L 13.682291666666668 45.60546875  L 13.682291666666668 43.1640625  C 13.68229166666667 42.3828125  14.021267361111114 41.9921875  14.69921875 41.9921875  C 15.315538194444446 41.9921875  15.62369791666667 42.3828125  15.623697916666668 43.1640625  L 15.623697916666668 45.60546875  L 16.51736111111111 45.60546875  L 16.51736111111111 43.1640625  C 16.51736111111111 42.3828125  16.856336805555557 41.9921875  17.534288194444443 41.9921875  C 18.15060763888889 41.9921875  18.45876736111111 42.3828125  18.45876736111111 43.1640625  Z M 23.57421875 45.05208333333333  L 23.57421875 45.60546875  L 24.467881944444446 45.60546875  L 24.467881944444446 43.39192708333333  L 24.467881944444446 41.2109375  L 23.57421875 41.2109375  L 23.57421875 41.73177083333333  C 23.224971064814817 41.29774305555556  22.783275462962965 41.08072916666667  22.249131944444446 41.08072916666667  C 21.65335648148148 41.08072916666667  21.160300925925927 41.29774305555556  20.76996527777778 41.73177083333333  C 20.37962962962963 42.16579861111111  20.184461805555554 42.71918402777777  20.184461805555554 43.39192708333333  C 20.184461805555554 44.06467013888889  20.37962962962963 44.61805555555556  20.76996527777778 45.05208333333333  C 21.160300925925927 45.48611111111111  21.65335648148148 45.703125  22.249131944444446 45.703125  C 22.824363425925927 45.703125  23.26605902777778 45.48611111111111  23.57421875 45.05208333333333  Z M 28.55099826388889 45.3125  C 28.889973958333336 45.05208333333333  29.059461805555554 44.70486111111111  29.059461805555554 44.27083333333333  C 29.059461805555554 43.53298611111111  28.57667824074074 43.09895833333333  27.61111111111111 42.96875  L 27.1796875 42.90364583333333  C 26.707175925925927 42.81684027777777  26.47092013888889 42.66493055555556  26.47092013888889 42.44791666666667  C 26.47092013888889 42.12239583333333  26.727719907407412 41.95963541666667  27.241319444444446 41.95963541666667  C 27.71383101851852 41.95963541666667  28.155526620370374 42.07899305555556  28.56640625 42.31770833333333  L 28.936197916666664 41.53645833333333  C 28.484230324074076 41.23263888888889  27.919270833333336 41.08072916666667  27.241319444444446 41.08072916666667  C 26.707175925925927 41.08072916666667  26.286024305555557 41.2109375  25.977864583333336 41.47135416666667  C 25.669704861111114 41.73177083333333  25.515625000000004 42.07899305555556  25.515625 42.51302083333333  C 25.515625000000004 43.22916666666667  25.998408564814817 43.65234375  26.963975694444446 43.78255208333333  L 27.364583333333336 43.84765625  C 27.857638888888893 43.93446180555556  28.104166666666668 44.08637152777777  28.104166666666664 44.30338541666667  C 28.104166666666668 44.67230902777777  27.785734953703706 44.85677083333333  27.14887152777778 44.85677083333333  C 26.63527199074074 44.85677083333333  26.173032407407412 44.70486111111111  25.76215277777778 44.40104166666667  L 25.36154513888889 45.14973958333333  C 25.875144675925927 45.51866319444444  26.47092013888889 45.703125  27.14887152777778 45.703125  C 27.74464699074074 45.703125  28.212022569444446 45.57291666666667  28.55099826388889 45.3125  Z M 31.956163194444446 45.703125  C 32.38758680555556 45.703125  32.75737847222222 45.59461805555556  33.06553819444444 45.37760416666667  L 32.819010416666664 44.56380208333333  C 32.55193865740741 44.71571180555556  32.28486689814815 44.79166666666667  32.017795138888886 44.79166666666667  C 31.627459490740744 44.79166666666667  31.432291666666668 44.55295138888889  31.432291666666664 44.07552083333333  L 31.432291666666664 42.08984375  L 32.911458333333336 42.08984375  L 32.911458333333336 41.2109375  L 31.432291666666664 41.2109375  L 31.432291666666664 39.87630208333333  L 30.5078125 39.87630208333333  L 30.5078125 41.2109375  L 29.64496527777778 41.2109375  L 29.64496527777778 42.08984375  L 30.5078125 42.08984375  L 30.5078125 44.07552083333333  C 30.507812500000004 45.16059027777777  30.990596064814817 45.703125  31.956163194444446 45.703125  Z M 37.13324652777778 41.71549479166667  C 36.76345486111111 41.29231770833333  36.29094328703704 41.08072916666667  35.71571180555556 41.08072916666667  C 35.119936342592595 41.08072916666667  34.62688078703704 41.29774305555556  34.236545138888886 41.73177083333333  C 33.84620949074075 42.16579861111111  33.651041666666664 42.71918402777777  33.651041666666664 43.39192708333333  C 33.651041666666664 44.08637152777777  33.851345486111114 44.64518229166667  34.251953125 45.068359375  C 34.652560763888886 45.49153645833333  35.16102430555556 45.703125  35.77734375 45.703125  C 36.45529513888889 45.703125  37.02025462962963 45.49696180555556  37.47222222222222 45.08463541666667  L 37.04079861111111 44.36848958333333  C 36.67100694444444 44.69401041666667  36.27039930555556 44.85677083333333  35.83897569444444 44.85677083333333  C 35.140480324074076 44.85677083333333  34.7193287037037 44.49869791666667  34.575520833333336 43.78255208333333  L 37.68793402777778 43.78255208333333  L 37.68793402777778 43.39192708333333  C 37.68793402777778 42.69748263888889  37.50303819444444 42.138671875  37.13324652777778 41.71549479166667  Z M 41.26258680555556 41.2109375  C 41.07769097222222 41.12413194444444  40.86197916666667 41.08072916666667  40.61545138888889 41.08072916666667  C 40.142939814814824 41.08072916666667  39.78342013888889 41.29774305555556  39.53689236111111 41.73177083333333  L 39.53689236111111 41.2109375  L 38.61241319444444 41.2109375  L 38.61241319444444 45.60546875  L 39.53689236111111 45.60546875  L 39.53689236111111 43.13151041666667  C 39.53689236111111 42.37196180555556  39.834780092592595 41.9921875  40.43055555555556 41.9921875  C 40.635995370370374 41.9921875  40.8208912037037 42.03559027777777  40.98524305555556 42.12239583333333  L 41.26258680555556 41.2109375  Z M 42.14084201388889 41.73177083333333  C 41.740234375 42.16579861111111  41.53993055555556 42.71918402777777  41.53993055555556 43.39192708333333  C 41.53993055555556 44.06467013888889  41.740234375 44.61805555555556  42.14084201388889 45.05208333333333  C 42.54144965277778 45.48611111111111  43.08072916666667 45.703125  43.75868055555556 45.703125  C 44.354456018518526 45.703125  44.847511574074076 45.52951388888889  45.23784722222222 45.18229166666667  L 44.80642361111111 44.40104166666667  C 44.43663194444444 44.68315972222223  44.077112268518526 44.81336805555556  43.72786458333333 44.79166666666667  C 43.35807291666667 44.79166666666667  43.055049189814824 44.66145833333333  42.81879340277778 44.40104166666667  C 42.58253761574075 44.140625  42.46440972222222 43.80425347222223  42.46440972222222 43.39192708333333  C 42.46440972222222 42.97960069444444  42.58253761574075 42.64322916666667  42.81879340277778 42.3828125  C 43.055049189814824 42.12239583333333  43.35807291666667 41.9921875  43.72786458333333 41.9921875  C 44.11820023148148 41.9921875  44.47771990740741 42.12239583333333  44.80642361111111 42.3828125  L 45.23784722222222 41.6015625  C 44.826967592592595 41.25434027777777  44.33391203703704 41.08072916666667  43.75868055555556 41.08072916666667  C 43.08072916666667 41.08072916666667  42.54144965277778 41.29774305555556  42.14084201388889 41.73177083333333  Z M 49.08984375 45.05208333333333  L 49.08984375 45.60546875  L 50.01432291666667 45.60546875  L 50.01432291666667 43.39192708333333  L 50.01432291666667 41.2109375  L 49.08984375 41.2109375  L 49.08984375 41.73177083333333  C 48.781684027777786 41.29774305555556  48.35026041666668 41.08072916666667  47.79557291666667 41.08072916666667  C 47.1997974537037 41.08072916666667  46.70160590277778 41.29774305555556  46.30099826388889 41.73177083333333  C 45.900390625 42.16579861111111  45.70008680555556 42.71918402777777  45.70008680555556 43.39192708333333  C 45.70008680555556 44.06467013888889  45.900390625 44.61805555555556  46.30099826388889 45.05208333333333  C 46.70160590277778 45.48611111111111  47.1997974537037 45.703125  47.79557291666667 45.703125  C 48.37080439814815 45.703125  48.80222800925926 45.48611111111111  49.08984375 45.05208333333333  Z M 53.83550347222222 41.2109375  C 53.671151620370374 41.12413194444444  53.455439814814824 41.08072916666667  53.18836805555556 41.08072916666667  C 52.71585648148148 41.08072916666667  52.35633680555556 41.29774305555556  52.10980902777778 41.73177083333333  L 52.10980902777778 41.2109375  L 51.21614583333333 41.2109375  L 51.21614583333333 45.60546875  L 52.10980902777778 45.60546875  L 52.10980902777778 43.13151041666667  C 52.10980902777778 42.37196180555556  52.40769675925926 41.9921875  53.00347222222222 41.9921875  C 53.20891203703704 41.9921875  53.393807870370374 42.03559027777777  53.55815972222222 42.12239583333333  L 53.83550347222222 41.2109375  Z M 57.50260416666667 45.05208333333333  L 57.50260416666667 45.60546875  L 58.39626736111111 45.60546875  L 58.39626736111111 43.39192708333333  L 58.39626736111111 39.42057291666667  L 57.50260416666667 39.42057291666667  L 57.50260416666667 41.73177083333333  C 57.19444444444446 41.29774305555556  56.7527488425926 41.08072916666667  56.17751736111111 41.08072916666667  C 55.60228587962963 41.08072916666667  55.11436631944444 41.30316840277777  54.71375868055556 41.748046875  C 54.31315104166667 42.19292534722223  54.11284722222222 42.74088541666667  54.11284722222222 43.39192708333333  C 54.11284722222222 44.04296875  54.31315104166667 44.59092881944444  54.71375868055556 45.03580729166667  C 55.11436631944444 45.48068576388889  55.60228587962963 45.703125  56.17751736111111 45.703125  C 56.773292824074076 45.703125  57.21498842592593 45.48611111111111  57.50260416666667 45.05208333333333  Z M 59.99869791666667 44.970703125  C 59.9576099537037 44.95985243055556  59.92679398148148 44.95442708333333  59.90625 44.95442708333333  L 59.84461805555556 44.98697916666667  L 59.75217013888889 44.98697916666667  C 59.71108217592593 45.00868055555556  59.66999421296296 45.04123263888889  59.62890625 45.08463541666667  C 59.567274305555564 45.10633680555556  59.536458333333336 45.14973958333333  59.53645833333333 45.21484375  C 59.515914351851855 45.25824652777777  59.50564236111111 45.32335069444444  59.50564236111111 45.41015625  C 59.50564236111111 45.47526041666667  59.515914351851855 45.52951388888889  59.53645833333333 45.57291666666667  C 59.536458333333336 45.61631944444444  59.567274305555564 45.65972222222223  59.62890625 45.703125  C 59.66999421296296 45.74652777777777  59.71108217592593 45.77907986111111  59.75217013888889 45.80078125  C 59.793258101851855 45.82248263888889  59.844618055555564 45.83333333333333  59.90625 45.83333333333333  C 59.98842592592593 45.83333333333333  60.050057870370374 45.82248263888889  60.09114583333333 45.80078125  C 60.091145833333336 45.77907986111111  60.111689814814824 45.75737847222223  60.15277777777778 45.73567708333333  L 60.21440972222222 45.703125  C 60.2349537037037 45.68142361111111  60.26576967592593 45.63802083333333  60.30685763888889 45.57291666666667  C 60.327401620370374 45.52951388888889  60.33767361111111 45.47526041666667  60.33767361111111 45.41015625  C 60.33767361111111 45.32335069444444  60.327401620370374 45.25824652777777  60.30685763888889 45.21484375  C 60.28631365740741 45.19314236111111  60.25549768518519 45.14973958333333  60.21440972222222 45.08463541666667  C 60.21440972222222 45.06293402777777  60.19386574074075 45.04123263888889  60.15277777777778 45.01953125  L 60.09114583333333 44.98697916666667  C 60.070601851851855 44.98697916666667  60.03978587962963 44.98155381944444  59.99869791666667 44.970703125  Z M 69.82899305555556 1.2369791666666685  C 70.60966435185186 2.061631944444442  71 3.038194444444442  71 4.166666666666669  L 71 45.83333333333333  C 71 46.96180555555556  70.60966435185186 47.93836805555556  69.82899305555556 48.76302083333333  C 69.04832175925927 49.58767361111111  68.12384259259261 50  67.05555555555556 50  L 3.944444444444444 50  C 2.876157407407408 50  1.9516782407407407 49.58767361111111  1.1710069444444444 48.76302083333333  C 0.39033564814814814 47.93836805555556  0 46.96180555555556  0 45.83333333333333  L 0 4.166666666666669  C 0 3.038194444444442  0.39033564814814814 2.061631944444442  1.1710069444444444 1.2369791666666685  C 1.9516782407407407 0.41232638888888395  2.876157407407408 0  3.944444444444444 0  L 67.05555555555556 0  C 68.12384259259261 0  69.04832175925927 0.41232638888888395  69.82899305555556 1.2369791666666685  Z " fill-rule="nonzero" fill="#ec4545" stroke="none" transform="matrix(1 0 0 1 841 282 )" />
  </g>
</svg>