<?xml version="1.0" encoding="utf-8"?>
<svg version="1.1" xmlns:xlink="http://www.w3.org/1999/xlink" width="70px" height="50px" xmlns="http://www.w3.org/2000/svg">
  <g transform="matrix(1 0 0 1 -841 -108 )">
    <path d="M 58.84982638888889 22.037760416666668  L 60.00434027777778 28.059895833333336  L 55.81163194444444 28.059895833333336  C 56.09519675925926 27.256944444444443  56.76359953703704 25.314670138888886  57.81684027777778 22.233072916666668  L 57.90798611111111 21.940104166666668  C 57.98900462962963 21.723090277777775  58.09027777777778 21.44097222222222  58.21180555555556 21.09375  C 58.333333333333336 20.746527777777775  58.424479166666664 20.46440972222222  58.48524305555556 20.247395833333332  L 58.84982638888889 22.037760416666668  Z M 3.888888888888889 15.006510416666668  C 10.188078703703706 16.72092013888889  14.269386574074076 20.36675347222222  16.1328125 25.944010416666664  L 14.370659722222223 16.341145833333332  C 14.147858796296298 15.169270833333332  13.388310185185187 14.583333333333332  12.09201388888889 14.583333333333332  L 3.9496527777777777 14.583333333333332  L 3.888888888888889 15.006510416666668  Z M 26.91840277777778 14.583333333333332  L 21.571180555555554 14.583333333333332  L 16.649305555555554 28.841145833333336  L 16.1328125 25.944010416666664  C 15.606192129629632 24.424913194444443  14.745370370370372 23.01974826388889  13.550347222222223 21.728515625  C 12.355324074074076 20.43728298611111  11.028645833333336 19.476996527777775  9.5703125 18.84765625  L 13.671875 35.44921875  L 18.98871527777778 35.44921875  L 26.91840277777778 14.583333333333332  Z M 28.953993055555554 14.583333333333332  L 25.794270833333332 35.481770833333336  L 30.83767361111111 35.481770833333336  L 33.99739583333333 14.583333333333332  L 28.953993055555554 14.583333333333332  Z M 48.42881944444444 19.62890625  L 49.127604166666664 15.104166666666668  C 47.73003472222223 14.518229166666668  46.221064814814824 14.225260416666668  44.60069444444444 14.225260416666668  C 42.109375 14.225260416666668  40.07378472222222 14.865451388888884  38.49392361111111 16.145833333333332  C 36.9140625 17.426215277777775  36.11400462962963 19.086371527777775  36.09375 21.126302083333332  C 36.07349537037038 23.33984375  37.54195601851852 25.227864583333336  40.49913194444444 26.790364583333336  C 41.471354166666664 27.28949652777778  42.14988425925926 27.734375  42.53472222222222 28.125  C 42.91956018518518 28.515625  43.111979166666664 28.938802083333336  43.111979166666664 29.39453125  C 43.111979166666664 30.045572916666664  42.80815972222222 30.544704861111104  42.200520833333336 30.891927083333336  C 41.59288194444444 31.239149305555546  40.89409722222222 31.412760416666664  40.104166666666664 31.412760416666664  C 38.36226851851852 31.412760416666664  36.78240740740741 31.0546875  35.364583333333336 30.338541666666664  L 34.69618055555556 29.98046875  L 33.99739583333333 34.66796875  C 35.49623842592593 35.40581597222222  37.369791666666664 35.774739583333336  39.61805555555556 35.774739583333336  C 42.25115740740741 35.79644097222222  44.362702546296305 35.15625  45.95269097222222 33.854166666666664  C 47.54267939814815 32.552083333333336  48.35792824074074 30.81597222222222  48.3984375 28.645833333333336  C 48.39843750000001 26.345486111111104  46.98061342592593 24.457465277777775  44.14496527777778 22.981770833333332  C 43.15248842592593 22.43923611111111  42.433449074074076 21.983506944444443  41.98784722222222 21.614583333333332  C 41.54224537037038 21.24565972222222  41.31944444444444 20.833333333333332  41.31944444444444 20.377604166666668  C 41.31944444444444 19.90017361111111  41.56756365740741 19.482421874999993  42.063802083333336 19.124348958333332  C 42.56004050925926 18.766276041666664  43.2740162037037 18.587239583333332  44.205729166666664 18.587239583333332  C 45.62355324074074 18.565538194444443  46.87934027777778 18.82595486111111  47.97309027777778 19.368489583333332  L 48.42881944444444 19.62890625  Z M 66.11111111111111 35.481770833333336  L 62.03993055555556 14.583333333333332  L 58.151041666666664 14.583333333333332  C 56.83449074074074 14.583333333333332  55.953414351851855 15.169270833333332  55.5078125 16.341145833333332  L 48.033854166666664 35.481770833333336  L 53.3203125 35.481770833333336  L 54.38368055555556 32.356770833333336  L 60.82465277777778 32.356770833333336  C 60.92592592592593 32.834201388888886  61.12847222222223 33.87586805555555  61.432291666666664 35.481770833333336  L 66.11111111111111 35.481770833333336  Z M 68.84548611111111 1.2369791666666685  C 69.61516203703704 2.061631944444442  70 3.038194444444442  70 4.166666666666669  L 70 45.83333333333333  C 70 46.96180555555556  69.61516203703704 47.93836805555556  68.84548611111111 48.76302083333333  C 68.07581018518519 49.58767361111111  67.16435185185186 50  66.11111111111111 50  L 3.888888888888889 50  C 2.835648148148149 50  1.9241898148148149 49.58767361111111  1.1545138888888888 48.76302083333333  C 0.38483796296296297 47.93836805555556  0 46.96180555555556  0 45.83333333333333  L 0 4.166666666666669  C 0 3.038194444444442  0.38483796296296297 2.061631944444442  1.1545138888888888 1.2369791666666685  C 1.9241898148148149 0.41232638888888395  2.835648148148149 0  3.888888888888889 0  L 66.11111111111111 0  C 67.16435185185186 0  68.07581018518519 0.41232638888888395  68.84548611111111 1.2369791666666685  Z " fill-rule="nonzero" fill="#0d43ad" stroke="none" transform="matrix(1 0 0 1 841 108 )" />
  </g>
</svg>