<?xml version="1.0" encoding="utf-8"?>
<svg version="1.1" xmlns:xlink="http://www.w3.org/1999/xlink" width="46px" height="60px" xmlns="http://www.w3.org/2000/svg">
  <defs>
    <mask fill="white" id="clip8">
      <path d="M 46 8.560794044665009  C 46 9.205955334987589  45.71879021879022 9.764267990074435  45.156370656370655 10.23573200992556  L 21.57915057915058 30  L 45.156370656370655 49.76426799007444  C 45.71879021879022 50.235732009925556  46 50.79404466501241  46 51.43920595533499  C 46 52.08436724565756  45.71879021879022 52.64267990074442  45.156370656370655 53.11414392059553  L 37.785714285714285 59.292803970223325  C 37.22329472329473 59.764267990074444  36.557271557271555 60  35.78764478764479 60  C 35.018018018018026 60  34.35199485199485 59.764267990074444  33.78957528957529 59.292803970223325  L 0.8436293436293437 31.674937965260543  C 0.28120978120978163 31.203473945409424  0 30.64516129032258  0 30  C 0 29.35483870967742  0.28120978120978163 28.79652605459057  0.8436293436293437 28.325062034739457  L 33.78957528957529 0.7071960297766733  C 34.35199485199485 0.23573200992555554  35.018018018018026 0  35.78764478764479 0  C 36.557271557271555 0  37.22329472329473 0.23573200992555554  37.785714285714285 0.7071960297766733  L 45.156370656370655 6.8858560794044665  C 45.71879021879022 7.357320099255578  46 7.915632754342424  46 8.560794044665009  Z " fill-rule="evenodd" />
    </mask>
  </defs>
  <g transform="matrix(1 0 0 1 -122 -253 )">
    <path d="M 46 8.560794044665009  C 46 9.205955334987589  45.71879021879022 9.764267990074435  45.156370656370655 10.23573200992556  L 21.57915057915058 30  L 45.156370656370655 49.76426799007444  C 45.71879021879022 50.235732009925556  46 50.79404466501241  46 51.43920595533499  C 46 52.08436724565756  45.71879021879022 52.64267990074442  45.156370656370655 53.11414392059553  L 37.785714285714285 59.292803970223325  C 37.22329472329473 59.764267990074444  36.557271557271555 60  35.78764478764479 60  C 35.018018018018026 60  34.35199485199485 59.764267990074444  33.78957528957529 59.292803970223325  L 0.8436293436293437 31.674937965260543  C 0.28120978120978163 31.203473945409424  0 30.64516129032258  0 30  C 0 29.35483870967742  0.28120978120978163 28.79652605459057  0.8436293436293437 28.325062034739457  L 33.78957528957529 0.7071960297766733  C 34.35199485199485 0.23573200992555554  35.018018018018026 0  35.78764478764479 0  C 36.557271557271555 0  37.22329472329473 0.23573200992555554  37.785714285714285 0.7071960297766733  L 45.156370656370655 6.8858560794044665  C 45.71879021879022 7.357320099255578  46 7.915632754342424  46 8.560794044665009  Z " fill-rule="nonzero" fill="#ffffff" stroke="none" transform="matrix(1 0 0 1 122 253 )" />
    <path d="M 46 8.560794044665009  C 46 9.205955334987589  45.71879021879022 9.764267990074435  45.156370656370655 10.23573200992556  L 21.57915057915058 30  L 45.156370656370655 49.76426799007444  C 45.71879021879022 50.235732009925556  46 50.79404466501241  46 51.43920595533499  C 46 52.08436724565756  45.71879021879022 52.64267990074442  45.156370656370655 53.11414392059553  L 37.785714285714285 59.292803970223325  C 37.22329472329473 59.764267990074444  36.557271557271555 60  35.78764478764479 60  C 35.018018018018026 60  34.35199485199485 59.764267990074444  33.78957528957529 59.292803970223325  L 0.8436293436293437 31.674937965260543  C 0.28120978120978163 31.203473945409424  0 30.64516129032258  0 30  C 0 29.35483870967742  0.28120978120978163 28.79652605459057  0.8436293436293437 28.325062034739457  L 33.78957528957529 0.7071960297766733  C 34.35199485199485 0.23573200992555554  35.018018018018026 0  35.78764478764479 0  C 36.557271557271555 0  37.22329472329473 0.23573200992555554  37.785714285714285 0.7071960297766733  L 45.156370656370655 6.8858560794044665  C 45.71879021879022 7.357320099255578  46 7.915632754342424  46 8.560794044665009  Z " stroke-width="2" stroke="#555555" fill="none" transform="matrix(1 0 0 1 122 253 )" mask="url(#clip8)" />
  </g>
</svg>