<?xml version="1.0" encoding="utf-8"?>
<svg version="1.1" xmlns:xlink="http://www.w3.org/1999/xlink" width="46px" height="62px" xmlns="http://www.w3.org/2000/svg">
  <defs>
    <mask fill="white" id="clip6">
      <path d="M 46 8.846153846153843  C 46 9.51282051282051  45.71879021879022 10.089743589743584  45.156370656370655 10.576923076923078  L 21.57915057915058 31  L 45.156370656370655 51.42307692307692  C 45.71879021879022 51.91025641025641  46 52.48717948717949  46 53.15384615384615  C 46 53.82051282051282  45.71879021879022 54.3974358974359  45.156370656370655 54.88461538461539  L 37.785714285714285 61.269230769230774  C 37.22329472329473 61.75641025641026  36.557271557271555 62  35.78764478764479 62  C 35.018018018018026 62  34.35199485199485 61.75641025641026  33.78957528957529 61.269230769230774  L 0.8436293436293437 32.730769230769226  C 0.28120978120978163 32.24358974358974  0 31.666666666666664  0 31  C 0 30.333333333333336  0.28120978120978163 29.756410256410252  0.8436293436293437 29.269230769230774  L 33.78957528957529 0.7307692307692291  C 34.35199485199485 0.24358974358974073  35.018018018018026 0  35.78764478764479 0  C 36.557271557271555 0  37.22329472329473 0.24358974358974073  37.785714285714285 0.7307692307692291  L 45.156370656370655 7.115384615384615  C 45.71879021879022 7.602564102564097  46 8.17948717948717  46 8.846153846153843  Z " fill-rule="evenodd" />
    </mask>
  </defs>
  <g transform="matrix(1 0 0 1 -119 -232 )">
    <path d="M 46 8.846153846153843  C 46 9.51282051282051  45.71879021879022 10.089743589743584  45.156370656370655 10.576923076923078  L 21.57915057915058 31  L 45.156370656370655 51.42307692307692  C 45.71879021879022 51.91025641025641  46 52.48717948717949  46 53.15384615384615  C 46 53.82051282051282  45.71879021879022 54.3974358974359  45.156370656370655 54.88461538461539  L 37.785714285714285 61.269230769230774  C 37.22329472329473 61.75641025641026  36.557271557271555 62  35.78764478764479 62  C 35.018018018018026 62  34.35199485199485 61.75641025641026  33.78957528957529 61.269230769230774  L 0.8436293436293437 32.730769230769226  C 0.28120978120978163 32.24358974358974  0 31.666666666666664  0 31  C 0 30.333333333333336  0.28120978120978163 29.756410256410252  0.8436293436293437 29.269230769230774  L 33.78957528957529 0.7307692307692291  C 34.35199485199485 0.24358974358974073  35.018018018018026 0  35.78764478764479 0  C 36.557271557271555 0  37.22329472329473 0.24358974358974073  37.785714285714285 0.7307692307692291  L 45.156370656370655 7.115384615384615  C 45.71879021879022 7.602564102564097  46 8.17948717948717  46 8.846153846153843  Z " fill-rule="nonzero" fill="#ffffff" stroke="none" transform="matrix(1 0 0 1 119 232 )" />
    <path d="M 46 8.846153846153843  C 46 9.51282051282051  45.71879021879022 10.089743589743584  45.156370656370655 10.576923076923078  L 21.57915057915058 31  L 45.156370656370655 51.42307692307692  C 45.71879021879022 51.91025641025641  46 52.48717948717949  46 53.15384615384615  C 46 53.82051282051282  45.71879021879022 54.3974358974359  45.156370656370655 54.88461538461539  L 37.785714285714285 61.269230769230774  C 37.22329472329473 61.75641025641026  36.557271557271555 62  35.78764478764479 62  C 35.018018018018026 62  34.35199485199485 61.75641025641026  33.78957528957529 61.269230769230774  L 0.8436293436293437 32.730769230769226  C 0.28120978120978163 32.24358974358974  0 31.666666666666664  0 31  C 0 30.333333333333336  0.28120978120978163 29.756410256410252  0.8436293436293437 29.269230769230774  L 33.78957528957529 0.7307692307692291  C 34.35199485199485 0.24358974358974073  35.018018018018026 0  35.78764478764479 0  C 36.557271557271555 0  37.22329472329473 0.24358974358974073  37.785714285714285 0.7307692307692291  L 45.156370656370655 7.115384615384615  C 45.71879021879022 7.602564102564097  46 8.17948717948717  46 8.846153846153843  Z " stroke-width="2" stroke="#555555" fill="none" transform="matrix(1 0 0 1 119 232 )" mask="url(#clip6)" />
  </g>
</svg>