<?xml version="1.0" encoding="utf-8"?>
<svg version="1.1" xmlns:xlink="http://www.w3.org/1999/xlink" width="46px" height="62px" xmlns="http://www.w3.org/2000/svg">
  <defs>
    <mask fill="white" id="clip7">
      <path d="M 46 31  C 46 31.666666666666664  45.71879021879022 32.24358974358974  45.156370656370655 32.730769230769226  L 12.21042471042471 61.269230769230774  C 11.648005148005149 61.75641025641026  10.981981981981983 62  10.212355212355213 62  C 9.442728442728443 62  8.776705276705277 61.75641025641026  8.214285714285715 61.269230769230774  L 0.8436293436293437 54.88461538461539  C 0.28120978120978163 54.3974358974359  0 53.82051282051282  0 53.15384615384615  C 0 52.48717948717949  0.28120978120978163 51.91025641025641  0.8436293436293437 51.42307692307692  L 24.42084942084942 31  L 0.8436293436293437 10.576923076923078  C 0.28120978120978163 10.089743589743584  0 9.51282051282051  0 8.846153846153843  C 0 8.17948717948717  0.28120978120978163 7.602564102564097  0.8436293436293437 7.115384615384615  L 8.214285714285715 0.7307692307692291  C 8.776705276705277 0.24358974358974073  9.442728442728443 0  10.212355212355213 0  C 10.981981981981983 0  11.648005148005149 0.24358974358974073  12.21042471042471 0.7307692307692291  L 45.156370656370655 29.269230769230774  C 45.71879021879022 29.756410256410252  46 30.333333333333336  46 31  Z " fill-rule="evenodd" />
    </mask>
  </defs>
  <g transform="matrix(1 0 0 1 -975 -232 )">
    <path d="M 46 31  C 46 31.666666666666664  45.71879021879022 32.24358974358974  45.156370656370655 32.730769230769226  L 12.21042471042471 61.269230769230774  C 11.648005148005149 61.75641025641026  10.981981981981983 62  10.212355212355213 62  C 9.442728442728443 62  8.776705276705277 61.75641025641026  8.214285714285715 61.269230769230774  L 0.8436293436293437 54.88461538461539  C 0.28120978120978163 54.3974358974359  0 53.82051282051282  0 53.15384615384615  C 0 52.48717948717949  0.28120978120978163 51.91025641025641  0.8436293436293437 51.42307692307692  L 24.42084942084942 31  L 0.8436293436293437 10.576923076923078  C 0.28120978120978163 10.089743589743584  0 9.51282051282051  0 8.846153846153843  C 0 8.17948717948717  0.28120978120978163 7.602564102564097  0.8436293436293437 7.115384615384615  L 8.214285714285715 0.7307692307692291  C 8.776705276705277 0.24358974358974073  9.442728442728443 0  10.212355212355213 0  C 10.981981981981983 0  11.648005148005149 0.24358974358974073  12.21042471042471 0.7307692307692291  L 45.156370656370655 29.269230769230774  C 45.71879021879022 29.756410256410252  46 30.333333333333336  46 31  Z " fill-rule="nonzero" fill="#ffffff" stroke="none" transform="matrix(1 0 0 1 975 232 )" />
    <path d="M 46 31  C 46 31.666666666666664  45.71879021879022 32.24358974358974  45.156370656370655 32.730769230769226  L 12.21042471042471 61.269230769230774  C 11.648005148005149 61.75641025641026  10.981981981981983 62  10.212355212355213 62  C 9.442728442728443 62  8.776705276705277 61.75641025641026  8.214285714285715 61.269230769230774  L 0.8436293436293437 54.88461538461539  C 0.28120978120978163 54.3974358974359  0 53.82051282051282  0 53.15384615384615  C 0 52.48717948717949  0.28120978120978163 51.91025641025641  0.8436293436293437 51.42307692307692  L 24.42084942084942 31  L 0.8436293436293437 10.576923076923078  C 0.28120978120978163 10.089743589743584  0 9.51282051282051  0 8.846153846153843  C 0 8.17948717948717  0.28120978120978163 7.602564102564097  0.8436293436293437 7.115384615384615  L 8.214285714285715 0.7307692307692291  C 8.776705276705277 0.24358974358974073  9.442728442728443 0  10.212355212355213 0  C 10.981981981981983 0  11.648005148005149 0.24358974358974073  12.21042471042471 0.7307692307692291  L 45.156370656370655 29.269230769230774  C 45.71879021879022 29.756410256410252  46 30.333333333333336  46 31  Z " stroke-width="2" stroke="#555555" fill="none" transform="matrix(1 0 0 1 975 232 )" mask="url(#clip7)" />
  </g>
</svg>